<!DOCTYPE svg PUBLIC "-//W3C//DTD SVG 1.1//EN" "http://www.w3.org/Graphics/SVG/1.1/DTD/svg11.dtd"><svg xmlns="http://www.w3.org/2000/svg" xmlns:xlink="http://www.w3.org/1999/xlink" width="100%" height="100%" viewBox="0 0 64 64" version="1.1" xml:space="preserve" style="fill-rule:evenodd;clip-rule:evenodd;stroke-linecap:round;stroke-linejoin:round;stroke-miterlimit:1.41421;">
    <g id="Background" transform="matrix(1.03125,0,0,1.03125,-1,-1)">
        <rect id="bg-color" x="0" y="0" width="64" height="64" style="fill:#000;"/>
    </g>
    <g id="Simple Body">
        <path id="torso" d="M27,34l10,0l0,7l10.572,0c3.27394,6.1406e-06 5.92799,2.65406 5.92799,5.928l-8.88178e-12,18.072l-8.5,0l0,-12.5l0,13.5l-26,0l0,-13.5l0,12.5l-8.5,0l0,-17c0,0 0,-0.0257091 0,-0.0740112c6.15927e-06,-3.82512 3.10088,-6.92599 6.92601,-6.92599l9.57399,5.65592e-12l0,-7Z" style="fill:#fff;stroke-width:1.33px;stroke:#000;"/>
    </g>
    <g id="Outfit~choose">
        <g id="Seifuku">
            <g id="Sleeves">
                <g id="Sleeve Right">
                    <g transform="matrix(1,0,0,1,0,-1)">
                        <rect x="45" y="56" width="8" height="3" style="fill:#000;"/>
                    </g>
                    <g transform="matrix(1,0,0,0.333333,0,40.3333)">
                        <rect x="45" y="56" width="8" height="3" style="fill:#000;"/>
                    </g>
                </g>
                <g id="Sleeve Left" transform="matrix(1,0,0,1,-34,0)">
                    <g transform="matrix(1,0,0,1,0,-1)">
                        <rect x="45" y="56" width="8" height="3" style="fill:#000;"/>
                    </g>
                    <g transform="matrix(1,0,0,0.333333,0,40.3333)">
                        <rect x="45" y="56" width="8" height="3" style="fill:#000;"/>
                    </g>
                </g>
            </g>
            <g id="Bow">
                <circle cx="32" cy="53" r="2" style="fill:#000;"/>
                <path d="M32,53c-1.12728,2.8245 -2.87793,5.29816 -6,7c-1.96392,-1.88028 0.528823,-2.73704 -3,-6c4.72417,-2.48907 7.38419,-2.39733 9,-1Z" style="fill:#000;"/>
                <g transform="matrix(-1,0,0,1,64,0)">
                    <path d="M32,53c-1.12728,2.8245 -2.87793,5.29816 -6,7c-0.679722,-3.82237 -2.61936,-1.7755 -3,-6c4.72417,-2.48907 7.38419,-2.39733 9,-1Z" style="fill:#000;"/>
                </g>
            </g>
            <g id="Collar">
                <path d="M21,41c0,0 1.097,12.2913 11,12.3105c9.903,0.0192009 11,-12.3105 11,-12.3105" style="fill:none;stroke-width:1.33px;stroke-linejoin:miter;stroke-miterlimit:10;stroke:#000;"/>
                <path d="M23,41c0.937081,5.3254 3.5065,9.08533 8,11c-1.54806,-3.21328 -3.63593,-6.80725 -4,-11l-4,0Z" style="fill:#000;"/>
                <g transform="matrix(-1,0,0,1,64,0)">
                    <path d="M23,41c0.937081,5.3254 3.5065,9.08533 8,11c-1.54806,-3.21328 -3.63593,-6.80725 -4,-11l-4,0Z" style="fill:#000;"/>
                </g>
            </g>
        </g>
        <g id="Tux">
            <g id="Bow Tie" transform="matrix(1,0,0,1,0,-1)">
                <g id="right" transform="matrix(1.5,0,0,1,-18.5,1.54543e-13)">
                    <path d="M37,44l-2,1l0,2l2,1l0,-4Z" style="fill:#000;"/>
                </g>
                <g id="middle" transform="matrix(1,0,0,1.5,0,-22.9921)">
                    <rect x="31" y="45" width="2" height="2" style="fill:#000;"/>
                </g>
                <g id="left" transform="matrix(1.5,0,0,1,-13.5,1.54543e-13)">
                    <path d="M29,45l-2,-1l0,4l2,-1l0,-2Z" style="fill:#000;"/>
                </g>
            </g>
            <path id="Opening" d="M42,41l-10,21l-10,-21" style="fill:none;stroke-width:1.33px;stroke-linejoin:miter;stroke-miterlimit:10;stroke:#000;"/>
        </g>
        <g id="Bandana">
            <path id="Bandana1" d="M21,41l11,15l11,-15l-6,0l0,-9l-10,0l0,9l-6,0Z" style="fill:#000;"/>
            <g id="Sleves">
                <g transform="matrix(1,0,0,1,0,-4)">
                    <rect x="11" y="59" width="8" height="2" style="fill:#000;"/>
                </g>
                <g transform="matrix(1,0,0,1,34,-4)">
                    <rect x="11" y="59" width="8" height="2" style="fill:#000;"/>
                </g>
            </g>
        </g>
        <g id="Buttons">
            <rect x="19" y="61" width="26" height="1" style="fill:#000;"/>
            <circle cx="32" cy="56" r="1" style="fill:#000;"/>
            <g transform="matrix(1,0,0,1,0,-5)">
                <circle cx="32" cy="56" r="1" style="fill:#000;"/>
            </g>
            <g transform="matrix(1,0,0,1,0,-10)">
                <circle cx="32" cy="56" r="1" style="fill:#000;"/>
            </g>
        </g>
        <g id="Square Neck Shirt">
            <path d="M39,41c0,0 0,9.79706 0,13c-1.14275e-05,0.552269 -0.447711,0.999968 -0.999979,0.999979c-2.57708,0 -9.42296,-7.10543e-15 -12,0c-0.552269,-1.14307e-05 -0.999968,-0.447711 -0.999979,-0.999979c1.20792e-13,-3.20296 1.20792e-13,-13 1.20792e-13,-13l-1,0c0,0 3.55271e-15,8.91599 3.55271e-15,13c-1.92586e-06,0.530433 0.21071,1.03914 0.585782,1.41422c0.375072,0.375074 0.883779,0.58579 1.41421,0.585791c3.07401,-2.99849e-12 8.92601,-2.99138e-12 12,-2.99138e-12c0.530433,-1.70915e-06 1.03914,-0.210717 1.41421,-0.585791c0.375072,-0.375074 0.585784,-0.883783 0.585782,-1.41422c2.79243e-12,-4.08401 2.79243e-12,-13 2.79243e-12,-13l-1,0Z" style="fill:#000;"/>
            <g transform="matrix(1,0,0,1,0,-4)">
                <rect x="11" y="59" width="8" height="2" style="fill:#000;"/>
            </g>
            <g transform="matrix(1,0,0,1,34,-4)">
                <rect x="11" y="59" width="8" height="2" style="fill:#000;"/>
            </g>
        </g>
        <g id="Robes">
            <g transform="matrix(1,0,0,1,1,0)">
                <path d="M38,41l-14,24l4,0l14,-24" style="fill:none;stroke-width:1.33px;stroke-miterlimit:10;stroke:#000;"/>
            </g>
            <path d="M27,41l6,10l-2,3l-8,-13" style="fill:none;stroke-width:1.33px;stroke-miterlimit:10;stroke:#000;"/>
            <path d="M39,37l0,4l-6,10l-6,-10l0,-4l12,0Z" style="fill:#000;"/>
        </g>
        <g id="Butler">
            <path d="M32,40c-2.14512,-0.0450939 -4.10255,-0.462977 -6,-1l0,-4l12,0l0,4c-1.68539,0.630191 -3.64344,1.0031 -6,1l1,4l3,-1c0,0 1.98425e-05,2.97637e-05 5.93506e-05,8.90259e-05c0.605516,0.908273 0.605516,2.09155 0,2.99982c-3.95081e-05,5.92622e-05 -5.93506e-05,8.90259e-05 -5.93506e-05,8.90259e-05l-3,-1c0,0 -4.84435e-05,4.84435e-05 -0.000144656,0.000144656c-0.265177,0.26518 -0.624836,0.414157 -0.999855,0.414157c-0.375019,0 -0.734678,-0.148977 -0.999855,-0.414157c-9.62126e-05,-9.62126e-05 -0.000144656,-0.000144656 -0.000144656,-0.000144656l-3,1c0,0 -1.98425e-05,-2.97637e-05 -5.93506e-05,-8.90259e-05c-0.605516,-0.908273 -0.605516,-2.09155 -3.55271e-15,-2.99982c3.95081e-05,-5.92622e-05 5.93506e-05,-8.90259e-05 5.93506e-05,-8.90259e-05l3,1l1,-4Z" style="fill:#000;"/>
            <path d="M18,41l0,25l28,0l0,-25l-6,0l-8,21l-8,-21l-6,0Z" style="fill:#000;"/>
        </g>
        <g id="Suit and Tie">
            <path d="M36,41l-8,0l3,4l-2,9l3,5l3,-5l-2,-9l3,-4Z" style="fill:#000;"/>
            <path d="M27,40c0,0 1.18998,0.5 5,0.5c3.81002,0 5,-0.5 5,-0.5l1,1l-3,3l-2,-3l-2,0l-2,3l-3,-3l1,-1Z" style="fill:#fff;stroke-width:1.33px;stroke-miterlimit:10;stroke:#000;"/>
            <path d="M42,40l-10,20l-10,-20" style="fill:none;stroke-width:1.33px;stroke-miterlimit:10;stroke:#000;"/>
        </g>
        <path id="Lace Shirt" d="M39,53c0,0 0,0.5 0,1c0,0.552277 -0.447703,0.999989 -0.999979,1c-2.57708,2.14079e-10 -9.42296,2.14072e-10 -12,2.14079e-10c-0.552277,-1.14309e-05 -0.999979,-0.447723 -0.999979,-1c2.14197e-10,-0.5 2.14197e-10,-1 2.14197e-10,-1l7,-2l7,2ZM39,49l-5,1.5l5,1.5l0,-3ZM24.9592,49l5.04077,1.5l-5.04077,1.5l0,-3ZM25,48l7,2l7,-2l-7,-2l-7,2ZM24.9592,44l5.04077,1.5l-5.04077,1.5l0,-3ZM39,44l-5,1.5l5,1.5l0,-3ZM24,41l1,0l0,2l7,2l7,-2l0,-2l1,0c0,0 0,8.91599 0,13c1.92586e-06,0.530433 -0.21071,1.03914 -0.585782,1.41422c-0.375072,0.375074 -0.883779,0.58579 -1.41421,0.585791c-3.07401,-3.0056e-12 -8.92601,-2.99849e-12 -12,-2.99849e-12c-0.530433,-1.70915e-06 -1.03914,-0.210717 -1.41421,-0.585791c-0.375072,-0.375074 -0.585784,-0.883783 -0.585782,-1.41422c-2.78888e-12,-4.08401 -2.79243e-12,-13 -2.79243e-12,-13Z" style="fill:#000;"/>
        <g id="Winter Jacket">
            <g transform="matrix(1,0,0,1,0,1)">
                <path d="M38,40c0,0 -0.408119,0.476139 -1.01148,1.18006c-1.24824,1.45627 -3.0705,2.29439 -4.98852,2.29439c-1.91803,0 -3.74029,-0.838121 -4.98852,-2.29439c-0.603358,-0.703918 -1.01148,-1.18006 -1.01148,-1.18006c-1.58699,-0.165644 -5.23409,0.0451337 -7,1l6,26l14,0l6,-26c-1.33375,-0.96248 -4.41114,-1.30275 -7,-1Z" style="fill:#fff;stroke-width:2px;stroke-linejoin:miter;stroke-miterlimit:10;stroke:#000;"/>
            </g>
            <g transform="matrix(1,0,0,1,0,-1)">
                <path d="M35,66l8,-26.1072c0,0 0.00421188,-0.00442079 0.0125068,-0.0131271c0.895257,-0.939666 2.35779,-1.04569 3.37922,-0.24497c1.02142,0.800719 1.26764,2.24627 0.568882,3.33998c-4.78958,7.49673 -8.9606,14.0253 -8.9606,14.0253" style="fill:#fff;stroke-width:2px;stroke-linejoin:miter;stroke-miterlimit:10;stroke:#000;"/>
            </g>
            <g transform="matrix(-1,0,0,1,64,-1)">
                <path d="M35,66l8,-26.1072c0,0 0.00421188,-0.00442079 0.0125068,-0.0131271c0.895257,-0.939666 2.35779,-1.04569 3.37922,-0.24497c1.02142,0.800719 1.26764,2.24627 0.568882,3.33998c-4.78958,7.49673 -8.9606,14.0253 -8.9606,14.0253" style="fill:#fff;stroke-width:2px;stroke-linejoin:miter;stroke-miterlimit:10;stroke:#000;"/>
            </g>
        </g>
        <g id="Crew Neck">
            <g transform="matrix(1,0,0,1,0,-4)">
                <rect x="11" y="59" width="8" height="2" style="fill:#000;"/>
            </g>
            <g transform="matrix(1,0,0,1,34,-4)">
                <rect x="11" y="59" width="8" height="2" style="fill:#000;"/>
            </g>
            <path id="Crew Neck1" d="M38,41c0,0 -7.10543e-15,3.77122e-06 -7.10543e-15,1.13077e-05c-6.24505e-06,3.3137 -2.6863,5.99999 -6,5.99999c-5.66322e-07,-1.0651e-11 -1.13264e-06,-1.0651e-11 -1.69896e-06,-1.0651e-11c-3.3137,-9.38311e-07 -5.99999,-2.68629 -6,-5.99999c-1.04201e-11,-7.53646e-06 -1.04166e-11,-1.13077e-05 -1.04166e-11,-1.13077e-05" style="fill:none;stroke-width:1.33px;stroke-miterlimit:10;stroke:#000;"/>
        </g>
    </g>
    <g id="Styles~toggle">
        <g id="Odango">
            <g id="odango-right">
                <g transform="matrix(0.685899,0,0,0.685899,16.3909,14.282)">
                    <circle cx="49" cy="20" r="2" style="fill:#fff;"/>
                </g>
                <g transform="matrix(0.685899,0,0,0.685899,16.3909,10.0288)">
                    <circle cx="49" cy="20" r="2" style="fill:#fff;"/>
                </g>
                <g transform="matrix(0.685899,0,0,0.685899,15.8263,5.69885)">
                    <circle cx="49" cy="20" r="2" style="fill:#fff;"/>
                </g>
                <g id="odango-core" transform="matrix(1,0,0,1,-1,0)">
                    <circle cx="47" cy="12" r="6" style="fill:#fff;stroke-width:1.33px;stroke:#000;"/>
                </g>
            </g>
            <g id="odango-left" transform="matrix(-1,0,0,1,64,0)">
                <g transform="matrix(0.685899,0,0,0.685899,16.3909,14.282)">
                    <circle cx="49" cy="20" r="2" style="fill:#fff;"/>
                </g>
                <g transform="matrix(0.685899,0,0,0.685899,16.3909,10.0288)">
                    <circle cx="49" cy="20" r="2" style="fill:#fff;"/>
                </g>
                <g transform="matrix(0.685899,0,0,0.685899,15.8263,5.69885)">
                    <circle cx="49" cy="20" r="2" style="fill:#fff;"/>
                </g>
                <g id="odango-core1" transform="matrix(1,0,0,1,-1,0)">
                    <circle cx="47" cy="12" r="6" style="fill:#fff;stroke-width:1.33px;stroke:#000;"/>
                </g>
            </g>
        </g>
        <path id="Headphones" d="M16,23c-2.74566e-06,-4.24347 1.68571,-8.31313 4.68629,-11.3137c3.00058,-3.00058 7.07025,-4.6863 11.3137,-4.6863c1.51019e-06,3.35021e-12 3.02038e-06,3.35021e-12 4.53057e-06,3.35021e-12c8.83656,2.50217e-06 16,7.16345 16,16c-4.12115e-13,2.38509 -4.12115e-13,4.53213 -4.12115e-13,5.99998c-4.06362e-06,0.530435 0.210707,1.03915 0.585779,1.41422c0.375072,0.375076 0.883781,0.585792 1.41422,0.585794c1.22163,-5.29532e-11 2.77838,-5.29532e-11 4.00001,-5.29568e-11c1.10456,-2.68839e-06 1.99999,-0.895427 2,-1.99999c1.06581e-11,-2.64946 1.06652e-11,-7.29797 1.06652e-11,-9.96494c3.77002e-07,-0.539735 -0.214409,-1.05736 -0.596059,-1.43901c-0.381651,-0.38165 -0.89928,-0.596058 -1.43902,-0.596057c-1.38395,-4.96314e-12 -2.96493,-4.96314e-12 -2.96493,-4.96314e-12c0,0 -3.40889,-13 -19,-13c-15.5911,0 -19,13 -19,13c0,0 -1.60783,0 -3,0c-0.530434,-1.31629e-06 -1.03914,0.210712 -1.41422,0.585785c-0.375074,0.375073 -0.585788,0.883782 -0.585788,1.41422c6.15152e-12,2.44428 6.15152e-12,6.55571 6.15152e-12,9c-7.88019e-08,1.10457 0.895428,2 2,2c1.22163,5.73408e-12 2.77838,5.73408e-12 4.00001,5.73408e-12c0.530434,-1.29102e-06 1.03914,-0.210717 1.41421,-0.585791c0.375072,-0.375075 0.585784,-0.883784 0.585782,-1.41422c1.30758e-11,-1.2633 1.30758e-11,-3.0267 1.30775e-11,-4.99998Z" style="fill:#fff;"/>
        <g id="Nurse Hat" transform="matrix(0.626694,-0.626694,0.626694,0.626694,-1.28417,14.8649)">
            <path d="M44,33.11c1.5111e-06,-6.36499 -2.52848,-12.4693 -7.02921,-16.97c-4.50073,-4.50073 -10.605,-7.02921 -16.97,-7.02921c-0.000517428,-1.42109e-14 -0.000776995,-1.42109e-14 -0.000776995,-1.42109e-14l0,24l24,0c0,1.42109e-14 0,-0.000259567 0,-0.000776995Z" style="fill:#fff;"/>
        </g>
        <g id="Tiara">
            <path d="M15,24c0.552281,-2.08512e-07 0.999995,-0.44771 1,-0.999991c4.04636e-11,-6.87909e-07 4.04636e-11,-1.37582e-06 4.04636e-11,-2.06373e-06c-1.84067e-06,-4.24347 1.68571,-8.31313 4.68629,-11.3137c3.00058,-3.00058 7.07025,-4.68629 11.3137,-4.68629c1.51019e-06,1.50635e-12 3.02038e-06,1.50635e-12 4.53057e-06,1.50635e-12c4.24346,1.20158e-06 8.31313,1.68571 11.3137,4.6863c3.00058,3.00058 4.68629,7.07025 4.68629,11.3137c5.23558e-06,0.552282 0.447719,0.999991 1,0.999991c0.265217,-1.00177e-07 0.519571,-0.105357 0.707107,-0.292894c0.187536,-0.187537 0.292893,-0.441891 0.292893,-0.707107c5.54223e-13,-7.39374e-07 5.54223e-13,-1.47875e-06 5.54223e-13,-2.21812e-06c-1.8415e-06,-9.94112 -8.05888,-18 -18,-18c-1.69896e-06,3.16192e-13 -3.39793e-06,3.16192e-13 -5.09689e-06,3.16192e-13c-9.94112,2.81494e-06 -18,8.05888 -18,18c-1.69349e-07,0.265217 0.105357,0.519571 0.292893,0.707108c0.187536,0.187537 0.44189,0.292893 0.707107,0.292894c1.25849e-07,-1.3145e-13 2.51699e-07,-1.3145e-13 7.55096e-07,-1.3145e-13Z" style="fill:#fff;"/>
            <g transform="matrix(1,0,0,1,-0.344189,0.0420786)">
                <circle cx="19" cy="10" r="2" style="fill:#fff;"/>
            </g>
            <g transform="matrix(1,0,0,1,3.51898,-3.20619)">
                <circle cx="19" cy="10" r="2" style="fill:#fff;"/>
            </g>
            <g transform="matrix(1,0,0,1,8.0684,-5.26163)">
                <circle cx="19" cy="10" r="2" style="fill:#fff;"/>
            </g>
            <g transform="matrix(1,0,0,1,13,-5.97598)">
                <circle cx="19" cy="10" r="2" style="fill:#fff;"/>
            </g>
            <g transform="matrix(1,0,0,1,18.2411,-5.26886)">
                <circle cx="19" cy="10" r="2" style="fill:#fff;"/>
            </g>
            <g transform="matrix(1,0,0,1,22.7165,-3.2945)">
                <circle cx="19" cy="10" r="2" style="fill:#fff;"/>
            </g>
            <g transform="matrix(1,0,0,1,26.8202,0)">
                <circle cx="19" cy="10" r="2" style="fill:#fff;"/>
            </g>
        </g>
        <g id="Hoodie">
            <g transform="matrix(2.21429,0,0,1.46495,-38.8571,-18.3834)">
                <rect x="25" y="29" width="14" height="12" style="fill:#000;"/>
            </g>
            <path d="M49,43c0,0 0,-10.0209 -7.10543e-15,-19.4888c-8.49423e-06,-9.19638 -7.31169,-16.7263 -16.5041,-16.9966c-0.000767572,-2.25756e-05 -0.00153514,-4.51513e-05 -0.00230272,-6.7727e-05c-4.59174,-0.135051 -9.04257,1.59457 -12.3382,4.79472c-3.29566,3.20015 -5.15538,7.5982 -5.15538,12.1919c-2.13163e-13,9.57066 -2.13163e-13,19.4988 -2.13163e-13,19.4988l1.5,0c0,0 0,-10.1369 0,-19.5c6.93109e-06,-8.56041 6.93959,-15.5 15.5,-15.5c1.463e-06,5.08038e-12 2.926e-06,5.08038e-12 4.38899e-06,5.08038e-12c8.56041,2.42397e-06 15.5,6.93958 15.5,15.5c4.46221e-12,9.36308 4.46221e-12,19.5 4.46221e-12,19.5l1.5,0Z" style="fill:#fff;"/>
        </g>
        <g id="Braids">
            <g id="Pigtails Right">
                <g transform="matrix(0.848171,0,0,0.848171,6.98412,5.01034)">
                    <circle cx="46" cy="33" r="3" style="fill:#fff;"/>
                </g>
                <g transform="matrix(0.848171,0,0,0.848171,10.9841,9.01034)">
                    <circle cx="46" cy="33" r="3" style="fill:#fff;"/>
                </g>
                <g transform="matrix(0.848171,0,0,0.848171,14.9841,13.0103)">
                    <circle cx="46" cy="33" r="3" style="fill:#fff;"/>
                </g>
            </g>
            <g id="Pigtails Left" transform="matrix(-1,0,0,1,64,0)">
                <g transform="matrix(0.848171,0,0,0.848171,6.98412,5.01034)">
                    <circle cx="46" cy="33" r="3" style="fill:#fff;"/>
                </g>
                <g transform="matrix(0.848171,0,0,0.848171,10.9841,9.01034)">
                    <circle cx="46" cy="33" r="3" style="fill:#fff;"/>
                </g>
                <g transform="matrix(0.848171,0,0,0.848171,14.9841,13.0103)">
                    <circle cx="46" cy="33" r="3" style="fill:#fff;"/>
                </g>
            </g>
        </g>
        <path id="Pony Right" d="M46,39l4,-4l-18,-13l14,17Z" style="fill:#fff;"/>
        <g id="Pony Left" transform="matrix(-1,0,0,1,64,0)">
            <path d="M46,39l4,-4l-18,-13l14,17Z" style="fill:#fff;"/>
        </g>
    </g>
    <g id="Simple Face">
        <g id="basic face" transform="matrix(1.09658,0,0,1.09658,-3.14931,-0.8417)">
            <circle cx="32.0537" cy="22.1256" r="13.0496" style="fill:#fff;stroke-width:1.22px;stroke:#000;"/>
        </g>
        <g id="eye-left" transform="matrix(0.984793,0,0,0.984793,-13.0693,0.324938)">
            <circle cx="38.6588" cy="24.039" r="3.04798" style="fill:#000;"/>
        </g>
        <g id="eye-right" transform="matrix(0.971463,0,0,0.971463,1.40544,0.686011)">
            <circle cx="38.6588" cy="24.039" r="3.04798" style="fill:#000;"/>
        </g>
    </g>
    <g id="Hair~choose">
        <g id="Part Right" transform="matrix(-1,0,0,1,64,3)">
            <path d="M18,18c7.03933,-0.0288596 10,-6 10,-6c0,0 0.257375,6.03644 18,6" style="fill:none;stroke-width:1.33px;stroke-linejoin:miter;stroke-miterlimit:10;stroke:#000;"/>
        </g>
        <g id="Part Center" transform="matrix(1,0,0,1,0,3)">
            <path d="M18,18c10.6747,-0.0437636 14,-6 14,-6c0,0 2.61717,6.02338 14,6" style="fill:none;stroke-width:1.33px;stroke-linejoin:miter;stroke-miterlimit:10;stroke:#000;"/>
        </g>
        <g id="Part Left" transform="matrix(1,0,0,1,0,3)">
            <path d="M18,18c7.03933,-0.0288596 10,-6 10,-6c0,0 0.257375,6.03644 18,6" style="fill:none;stroke-width:1.33px;stroke-linejoin:miter;stroke-miterlimit:10;stroke:#000;"/>
        </g>
        <path id="Top Hat" d="M7.5,19.5l49,0l0,-4.99997l-11,-3.39427e-05l0,-14l-27,0l0,14l-11,-3.39427e-05l0,5Z" style="fill:#fff;stroke-width:1.33px;stroke-linejoin:miter;stroke-miterlimit:10;stroke:#000;"/>
        <path id="Shag" d="M33,16c0.226868,-1.01706 0.17333,-2.07587 0.17333,-2.07587c-1.30565,2.09612 -7.54574,6.87259 -8.17333,9.07587c-0.675682,-1.72782 -0.226362,-4.3461 1,-7c-3.17816,2.72675 -4.95712,6.56975 -6,11c-0.632074,-2.21025 -1,-5 -1,-5c-0.602149,0.946622 -1.81079,5.78045 -1.30991,10c0,0 -0.223957,-3.86425 -0.293078,-9.3578c-0.0481817,-3.86298 1.45264,-7.58437 4.1673,-10.3331c2.71466,-2.74873 6.41704,-4.29585 10.2803,-4.29585c0.00108725,-0.0132469 0.0021745,-0.0132469 0.00326176,-0.0132469c3.83556,-8.21329e-07 7.51403,1.52367 10.2262,4.23582c2.71215,2.71215 4.23582,6.39062 4.23582,10.2262c2.20268e-13,5.53188 2.20268e-13,10.538 2.20268e-13,10.538c-0.922138,-6.14185 -2.14521,-11.8108 -4.30991,-16c-0.549189,0.929179 -1.05352,2.85158 -1,5c-1.21369,-0.237448 -1.58334,-4.78836 -4,-8c-1.26824,2.55013 -3.58298,4.46922 -5,5c0.631603,-1.09986 0.773028,-1.98247 1,-3Z" style="fill:#fff;stroke-width:1.33px;stroke-linejoin:miter;stroke-miterlimit:10;stroke:#000;"/>
        <path id="Straight Side" d="M17.6901,19l17.3099,0l0,-8c0,0 -7.10543e-15,3.5631e-06 0,1.06851e-05c4.20481e-06,5.56592 4.51207,10.078 10.078,10.078c1.15107,3.66285e-12 1.92201,3.66285e-12 1.92201,3.66285e-12" style="fill:none;stroke-width:1.33px;stroke-miterlimit:10;stroke:#000;"/>
        <g id="Cap">
            <path d="M46.3099,22c0,0 -25.7984,-3.55271e-15 -33.2919,0c-0.535209,-1.89141e-06 -1.0485,-0.212615 -1.42694,-0.591067c-0.378447,-0.378452 -0.591055,-0.891741 -0.59105,-1.42695c-5.81366e-11,-0.000772616 -5.81366e-11,-0.00154523 -5.81384e-11,-0.00231784c6.95194e-06,-1.0934 0.886289,-1.97981 1.97969,-1.97999c2.29496,-0.000373419 5.7662,-0.000938235 5.7662,-0.000938235c0,0 3.32751,-8.80378 12.8841,-8.888c7.57302,-0.0667347 13.6744,5.26616 14.6799,12.888c0.000109277,0.00082836 3.33955e-13,0.0012557 3.33955e-13,0.0012557Z" style="fill:#fff;stroke-width:1.33px;stroke-linejoin:miter;stroke-miterlimit:10;stroke:#000;"/>
            <path d="M36,18c0,-0.552285 -0.447715,-1 -1,-1l-7,0c-0.552285,0 -1,0.447715 -1,1c0,0.552285 0.447715,1 1,1l7,0c0.552285,0 1,-0.447715 1,-1Z" style="fill:#000;"/>
        </g>
        <path id="Crown" d="M18,20l1,-10.8893l4,3.88926l2,-8l4,5l3,-8l3,8l4,-5l2,8l4,-3.88926l1.30991,10.8893c0,0 -4.05987,-2 -14.3099,-2c-10.25,0 -14,2 -14,2Z" style="fill:#fff;stroke-width:1.33px;stroke-linejoin:miter;stroke-miterlimit:10;stroke:#000;"/>
    </g>
</svg>
